<svg width="32" height="33" viewBox="0 0 32 33" fill="none" xmlns="http://www.w3.org/2000/svg">
<g clip-path="url(#clip0_1_609)">
<path d="M22.6666 4.50004H28C28.3536 4.50004 28.6927 4.64052 28.9428 4.89056C29.1928 5.14061 29.3333 5.47975 29.3333 5.83337V27.1667C29.3333 27.5203 29.1928 27.8595 28.9428 28.1095C28.6927 28.3596 28.3536 28.5 28 28.5H3.99996C3.64634 28.5 3.3072 28.3596 3.05715 28.1095C2.8071 27.8595 2.66663 27.5203 2.66663 27.1667V5.83337C2.66663 5.47975 2.8071 5.14061 3.05715 4.89056C3.3072 4.64052 3.64634 4.50004 3.99996 4.50004H9.33329V1.83337H12V4.50004H20V1.83337H22.6666V4.50004ZM26.6666 12.5V7.16671H22.6666V9.83337H20V7.16671H12V9.83337H9.33329V7.16671H5.33329V12.5H26.6666ZM26.6666 15.1667H5.33329V25.8334H26.6666V15.1667ZM7.99996 17.8334H14.6666V23.1667H7.99996V17.8334Z" fill="white"/>
</g>
<defs>
<clipPath id="clip0_1_609">
<rect width="32" height="32" fill="white" transform="translate(0 0.5)"/>
</clipPath>
</defs>
</svg>
